<?xml version="1.0" encoding="utf-8"?>
<!-- Generator: Adobe Illustrator 23.0.0, SVG Export Plug-In . SVG Version: 6.00 Build 0)  -->
<svg version="1.1" xmlns="http://www.w3.org/2000/svg" xmlns:xlink="http://www.w3.org/1999/xlink" x="0px" y="0px"
	 viewBox="0 0 400 400" style="enable-background:new 0 0 400 400;" xml:space="preserve">
<style type="text/css">
	.st0{display:none;fill:#070C34;}
	.st1{fill:#070C34;}
	.st2{clip-path:url(#SVGID_2_);fill:url(#SVGID_3_);}
	.st3{display:none;}
	.st4{display:inline;}
	.st5{clip-path:url(#SVGID_5_);}
	.st6{fill-rule:evenodd;clip-rule:evenodd;fill:#FF3C3D;}
</style>
<g id="Capa_1">
	<rect class="st0" width="400" height="400"/>
	<circle class="st1" cx="200" cy="200" r="200"/>
	<g>
		<defs>
			<path id="SVGID_1_" d="M68.39,111.45c-4.77,1.32-9,4.08-12.07,7.91c-3.09,3.82-4.87,8.51-5.09,13.39v135.32
				c0,3.4,0.85,6.75,2.43,9.77c1.58,3.01,3.88,5.62,6.69,7.58c2.81,1.96,6.07,3.23,9.48,3.72c3.42,0.49,6.89,0.14,10.15-0.97
				c5.1-1.8,9.5-5.16,12.58-9.54c3.07-4.41,4.69-9.64,4.59-14.98v-75.25c0-0.34,0.1-0.69,0.3-0.99c0.2-0.3,0.49-0.52,0.81-0.67
				c0.34-0.14,0.71-0.16,1.05-0.1c0.36,0.06,0.69,0.24,0.93,0.49l39.57,39.14c8.63,8.53,24.2,8.09,30.53,0
				c6.33-8.09,35.99-48,42.76-57.02c0.16-0.2,0.38-0.38,0.63-0.5c0.24-0.12,0.51-0.18,0.79-0.18c0.28,0,0.55,0.06,0.79,0.18
				c0.24,0.12,0.46,0.28,0.63,0.5l25.29,29.68c0.24,0.3,0.38,0.71,0.38,1.09c0,0.38-0.14,0.79-0.38,1.09
				c-6.96,9.6-14.03,18.72-20.93,28.15c-5.34,7.2-10.76,14.62-15.77,22.04c-2.99,3.98-5.26,8.45-6.69,13.2
				c-0.79,3.21-0.65,6.59,0.4,9.73c4.93,15.02,22.54,14.32,29.1,14.32h99.56c5.7-0.02,11.18-2.27,15.22-6.25
				c4.02-3.98,6.33-9.38,6.33-15c0.71-12.37-11.52-20.54-21.23-20.54h-63.57c-0.34,0.02-0.69-0.06-0.99-0.24
				c-0.3-0.18-0.54-0.45-0.69-0.75c-0.16-0.3-0.2-0.65-0.16-0.99c0.04-0.34,0.2-0.65,0.42-0.91l6.37-7.42l12.19-14.32
				c5.18-6.27,10.8-12.13,11.28-20.74c0-7.3-2.91-14.29-8.13-19.47c-0.73-1.09-2.49-2.97-4.49-5.28l-17.43-20.48h0.02
				c-0.18-0.26-0.3-0.57-0.3-0.87c-0.02-0.3,0.06-0.61,0.2-0.89c0.14-0.26,0.36-0.51,0.63-0.67c0.26-0.16,0.57-0.26,0.89-0.26h62.94
				c5.36,0.08,10.53-1.76,14.62-5.18c4.08-3.4,6.77-8.15,7.56-13.37c0.4-2.99,0.16-6.04-0.73-8.96c-0.89-2.89-2.4-5.58-4.43-7.86
				c-2.02-2.29-4.53-4.12-7.32-5.38c-2.81-1.25-5.84-1.92-8.92-1.92H214.8c-3.15,0.04-6.25,0.75-9.08,2.08
				c-2.83,1.33-5.34,3.27-7.34,5.66l-43.21,58.96c-0.14,0.2-0.34,0.38-0.57,0.51c-0.22,0.12-0.46,0.2-0.73,0.22
				c-0.26,0.02-0.53-0.02-0.77-0.1c-0.24-0.08-0.46-0.22-0.65-0.4L91.64,117.7c-2.97-2.97-6.69-5.12-10.78-6.21
				c-2.06-0.56-4.18-0.84-6.3-0.84C72.49,110.65,70.42,110.92,68.39,111.45"/>
		</defs>
		<clipPath id="SVGID_2_">
			<use xlink:href="#SVGID_1_"  style="overflow:visible;"/>
		</clipPath>
		
			<linearGradient id="SVGID_3_" gradientUnits="userSpaceOnUse" x1="0" y1="400.0001" x2="1" y2="400.0001" gradientTransform="matrix(333.7089 192.6669 192.6669 -333.7089 -77064.9453 133569.2031)">
			<stop  offset="0" style="stop-color:#FF0074"/>
			<stop  offset="0.23" style="stop-color:#FF0074"/>
			<stop  offset="0.2614" style="stop-color:#FF0068"/>
			<stop  offset="0.3182" style="stop-color:#FF0048"/>
			<stop  offset="0.3934" style="stop-color:#FF0015"/>
			<stop  offset="0.41" style="stop-color:#FF0009"/>
			<stop  offset="0.4285" style="stop-color:#FF0A08"/>
			<stop  offset="0.536" style="stop-color:#FF4004"/>
			<stop  offset="0.6164" style="stop-color:#FF6201"/>
			<stop  offset="0.66" style="stop-color:#FF6F00"/>
			<stop  offset="0.724" style="stop-color:#FF8700"/>
			<stop  offset="0.8337" style="stop-color:#FFAC00"/>
			<stop  offset="0.923" style="stop-color:#FFC200"/>
			<stop  offset="0.98" style="stop-color:#FFCA00"/>
			<stop  offset="1" style="stop-color:#FFCA00"/>
		</linearGradient>
		<polygon class="st2" points="125.71,-18.35 426.64,155.39 274.67,418.62 -26.27,244.88 		"/>
	</g>
</g>
<g id="Capa_2" class="st3">
	<g class="st4">
		<defs>
			<rect id="SVGID_4_" x="62" width="275" height="400"/>
		</defs>
		<clipPath id="SVGID_5_">
			<use xlink:href="#SVGID_4_"  style="overflow:visible;"/>
		</clipPath>
		<g class="st5">
			<path class="st6" d="M225.55,31.45c14.54,0,28.18,1.95,40.8,5.56C253.99,8.2,228.32,0,199.76,0c-28.62,0-54.33,8.24-66.67,37.18
				c12.53-3.74,26.11-5.73,40.6-5.73H225.55z M170.37,60.38C101.33,60.38,62,114.69,62,181.68v68.82c0,6.7,5.6,12,12.5,12h250
				c6.9,0,12.5-5.3,12.5-12v-68.82c0-66.99-45.74-121.3-114.78-121.3H170.37z M199.4,182.28c24.16,0,43.75-19.59,43.75-43.75
				c0-24.16-19.59-43.75-43.75-43.75c-24.16,0-43.75,19.59-43.75,43.75C155.65,162.69,175.24,182.28,199.4,182.28z M62,302.95
				c0-6.7,5.6-12.13,12.5-12.13h250c6.9,0,12.5,5.43,12.5,12.13v72.78c0,13.4-11.19,24.26-25,24.26H87c-13.81,0-25-10.86-25-24.26
				V302.95z"/>
		</g>
	</g>
</g>
<g id="Capa_3" class="st3">
</g>
<g id="Capa_4">
</g>
</svg>
